<svg width="25" height="25" viewBox="0 0 25 25" fill="none" xmlns="http://www.w3.org/2000/svg">
<circle cx="12.5" cy="12.5" r="12.5" fill="url(#paint0_linear_24_36)"/>
<path d="M15.5543 11.8628C15.9777 11.3734 16.2381 10.7116 16.2381 9.98387C16.2381 8.48088 15.1272 7.25804 13.7619 7.25804H13.5714V6.62902C13.5714 6.28176 13.3154 6 13 6C12.6845 6 12.4286 6.28176 12.4286 6.62902V7.25804H11.6667V6.62902C11.6667 6.28176 11.4107 6 11.0952 6C10.7798 6 10.5238 6.28176 10.5238 6.62902V7.25804H9.57142C9.25595 7.25804 9 7.5398 9 7.88706C9 8.23433 9.25595 8.51609 9.57142 8.51609H9.76191V16.4839H9.57142C9.25595 16.4839 9 16.7657 9 17.1129C9 17.4602 9.25595 17.742 9.57142 17.742H10.5238V18.371C10.5238 18.7182 10.7798 19 11.0952 19C11.4107 19 11.6667 18.7182 11.6667 18.371V17.742H12.4286V18.371C12.4286 18.7182 12.6845 19 13 19C13.3154 19 13.5714 18.7182 13.5714 18.371V17.742H14.1428C15.7184 17.742 17 16.3311 17 14.5968C17 13.4273 16.4171 12.4047 15.5543 11.8628ZM13.8 8.6C14.5352 8.6 15.0953 9.1747 15.0953 9.98391C15.0953 10.7931 14.5351 11.2 13.8 11.2H10.9047V8.61486L13.8 8.6ZM14.1428 16.4H10.9047V12.9333H13.8H14.1428C15.0882 12.9333 15.8572 13.5562 15.8572 14.5968C15.8571 15.6375 15.0882 16.4 14.1428 16.4Z" fill="white"/>
<defs>
<linearGradient id="paint0_linear_24_36" x1="12.5" y1="0" x2="12.5" y2="25" gradientUnits="userSpaceOnUse">
<stop stop-color="#FFC03D"/>
<stop offset="1" stop-color="#FA9C21"/>
</linearGradient>
</defs>
</svg>
