<svg width="20" height="35" viewBox="0 0 20 35" fill="none" xmlns="http://www.w3.org/2000/svg">
<path fill-rule="evenodd" clip-rule="evenodd" d="M9.96875 0C11.4702 0 12.6875 1.21724 12.6875 2.71875V2.75572C16.6344 3.75006 19.9375 6.86212 19.9375 11.177C19.9375 12.6784 18.7202 13.8957 17.2187 13.8957C15.7173 13.8957 14.5 12.6784 14.5 11.177C14.5 9.78496 12.9565 7.85429 9.96875 7.85429C6.98103 7.85429 5.4375 9.78496 5.4375 11.177C5.4375 12.5693 6.98103 14.5 9.96875 14.5C14.989 14.5 19.9375 17.9793 19.9375 23.2605C19.9375 27.5754 16.6344 30.6874 12.6875 31.6818V31.7188C12.6875 33.2202 11.4702 34.4375 9.96875 34.4375C8.46728 34.4375 7.25 33.2202 7.25 31.7188V31.6818C3.3031 30.6874 0 27.5754 0 23.2605C0 21.7591 1.21724 20.5418 2.71875 20.5418C4.22022 20.5418 5.4375 21.7591 5.4375 23.2605C5.4375 24.6525 6.98103 26.5832 9.96875 26.5832C12.9565 26.5832 14.5 24.6525 14.5 23.2605C14.5 21.8682 12.9565 19.9375 9.96875 19.9375C4.94849 19.9375 0 16.4586 0 11.177C0 6.86212 3.3031 3.75006 7.25 2.75572V2.71875C7.25 1.21724 8.46728 0 9.96875 0Z" fill="white"/>
</svg>
